<?xml version="1.0" encoding="UTF-8"?>
<svg id="Layer_1" data-name="Layer 1" xmlns="http://www.w3.org/2000/svg" viewBox="0 0 439.37 39.69">
  <defs>
    <style>
      .cls-1 {
        fill: #f3f3f3;
      }

      .cls-1, .cls-2, .cls-3, .cls-4, .cls-5, .cls-6 {
        stroke-width: 0px;
      }

      .cls-2 {
        fill: #f2f2f2;
      }

      .cls-3 {
        fill: #ececec;
      }

      .cls-4 {
        fill: #f1f1f1;
      }

      .cls-5 {
        fill: #f0f0f0;
      }

      .cls-6 {
        fill: #f4f4f4;
      }
    </style>
  </defs>
  <path class="cls-4" d="m262.02,3.05h15.47c-6.62,4.71-5.13,10.78-4.91,16.64,2.48-5.32,9.39-8.46,8.06-16.28h8.86c-8.91,11.65-16.48,23.72-25.8,34.47-.44-.23-.89-.47-1.33-.7v-17.6c-4.93,6.52-9.52,12.61-14.12,18.7-.55-.2-1.11-.4-1.66-.6.62-11.27,1.23-22.54,1.87-34.3h10.09c-.7,4.99-1.44,10.27-2.18,15.56,8.08-7.25,9.07-10.32,5.65-15.87Z"/>
  <path class="cls-6" d="m283.26,37.1c9.17-7.98,7.46-19.59,11.39-28.78.47-1.11-1.21-3.13-2.12-5.26,5.98,0,12.16-.3,18.29.13,2.92.2,5.94,1.63,6.28,5.38.32,3.6-.95,6.51-4.15,8.39-.92.54-1.91.97-3.15,1.58,3.83,2.84,6.19,6.1,4.08,10.97-2.2,5.07-6.2,6.61-11.44,6.66-6.39.05-12.78.6-19.18.94Zm13.08-4.28c5.24-.54,8.55-2.24,9-6.92.3-3.1-1.65-4.74-5.15-5.39-1.25,4-2.44,7.79-3.85,12.31Zm5-16.81c4.65.28,6.31-2.57,6.67-5.89.15-1.45-1.7-3.11-2.64-4.67-.41.2-.81.41-1.22.61-.91,3.21-1.82,6.43-2.81,9.96Z"/>
  <path class="cls-1" d="m206.57,24.72c0-10.23,8.69-20.75,18.76-22.7,9.58-1.86,16.7,5.37,14.79,15.04-2.09,10.6-9.34,18.38-18.74,20.1-8.64,1.58-14.81-3.6-14.81-12.44Zm8.16,2.81c1.72,2.27,3,5.32,4.27,5.32,2.08,0,5.14-1.48,6.06-3.23,2.61-4.99,4.3-10.45,6.43-15.69,1.5-3.7-.58-6.49-3.24-7.77-1.33-.64-5.19,1.12-5.99,2.74-2.88,5.82-4.94,12.04-7.52,18.64Z"/>
  <path class="cls-1" d="m353.94,14.8c-.18,10.56-9.56,21.34-19.53,22.47-9.31,1.05-15.59-5.5-14-14.7,1.73-10.05,7.32-16.92,17.14-20.05,9.19-2.94,16.56,2.63,16.39,12.28Zm-8.39-2.84c-1.2-2.11-2.27-5.82-3.64-5.94-2.09-.18-4.4,2.13-6.59,3.42-.24.14-.37.52-.47.81-1.9,5.34-4.25,10.58-5.43,16.08-.42,1.99,1.98,4.58,3.1,6.89,1.95-1.05,4.38-1.67,5.75-3.23,4.32-4.92,6.15-10.93,7.28-18.02Z"/>
  <path class="cls-3" d="m122.4,36.84c-.16-.61-.26-.86-.22-.89,8.25-5.53,7.52-15.2,10.56-23.11,1.18-3.07,3.39-6.45-1.68-9.63h27.55c-.84,3.21-1.65,6.28-2.21,8.38-3.38-1.91-7.07-5.66-9.9-5.1-2.53.5-4.11,5.77-6.11,8.94.57.63,1.13,1.25,1.7,1.88,3-1.7,5.99-3.4,9.99-5.67-1.54,5.23-2.88,9.79-4.22,14.36-.44-.06-.88-.12-1.32-.18-.32-1.13-.33-2.55-1.04-3.33-.84-.92-2.27-1.73-3.46-1.75-.93-.02-2.42,1.05-2.74,1.96-1.1,3.05-1.79,6.26-2.66,9.5,7.56,1.64,12.12-3.26,17.29-6.82,1.02,7.35-2.39,11.47-9.11,11.46-7.44-.02-14.87,0-22.41,0Z"/>
  <path class="cls-1" d="m1.04,36.16c1.03-4.57,1.97-8.73,2.92-12.89.43-.08.86-.15,1.28-.23,1.32,2.35,2.42,4.87,4.05,6.99,1.14,1.47,2.89,3.03,4.58,3.32,1.19.21,3.75-1.48,3.91-2.58.27-1.86-.5-4.15-1.51-5.85-1.83-3.09-4.65-5.64-6.17-8.84-3.82-8.04.07-14.13,9.05-14.57,4.08-.2,8.18-.03,13.01-.03-1.16,4.74-2.23,9.13-3.63,14.83-1.88-3.66-2.74-6.19-4.33-8.12-.96-1.17-3.05-1.41-4.63-2.07-.52,2.1-1.85,4.43-1.33,6.24.59,2.07,2.73,3.75,4.34,5.46,3.58,3.78,6.01,8.11,3.77,13.22-2.22,5.08-7,6.53-12.22,6.27-4.21-.21-8.41-.72-13.1-1.15Z"/>
  <path class="cls-6" d="m46.27,36.04c-5.78.37-11.57.74-18.07,1.16,9.15-10.34,11.11-21.83,11.26-34.43,3.88,0,8.59-.05,13.29.01,5.84.08,9.45,2.45,10.24,6.55.81,4.23-2.08,9.51-6.7,11.41-2.1.87-4.6,1.35-6.84,1.16-3.47-.29-5.05.98-5.35,4.29,0,.08-.12.61-.24,1.14s-.25,1.09-.27,1.16c-1.14,3.11-1.29,5.44,3.27,6.02-.19.51-.38,1.02-.57,1.53Zm.12-18.24c5.47-.74,8.25-3.98,7.23-8.4-.26-1.1-1.6-1.95-2.45-2.92-.78.81-1.92,1.49-2.26,2.45-.98,2.78-1.64,5.68-2.52,8.87Zm28.22,14.56"/>
  <path class="cls-2" d="m207.49,2.73c-1.07,3.84-2.14,7.68-3.21,11.52-.38.05-.75.11-1.13.16-.49-1.49-.95-3-1.49-4.48-1.41-3.87-4.48-5.18-8.31-3.56-6.16,2.59-11.75,14.93-9.7,21.4,1.45,4.58,5.66,6.26,10.24,3.89,2.29-1.19,4.4-2.73,6.91-4.3-1.83,6.76-6.65,10.08-13.84,9.95-6.66-.13-11.45-3.79-12.8-9.77-3.06-13.61,10-27.48,24.1-25.64,2.89.38,5.8.53,9.24.83Z"/>
  <path class="cls-2" d="m127.13,2.75c-.96,4-1.86,7.69-2.75,11.38-.38.05-.77.09-1.15.14-.54-1.34-1.06-2.68-1.61-4.01-2.08-5.01-5.89-6.26-10.13-2.87-5.94,4.76-8.34,11.38-8.27,18.81.04,4.43,4.6,8.85,10.16,5.38,2.5-1.56,5.13-2.9,8.08-4.56-3.13,8.35-11.05,12.17-19.01,9.61-6.75-2.17-10.17-9.05-8.37-16.88,2.56-11.15,9.64-16.85,21.2-17,3.76-.05,7.52,0,11.86,0Z"/>
  <path class="cls-5" d="m376.41,35.95h-18.37c10.1-10.75,10.43-17.57,1.73-32.81h17.81c-6.79,3.73-4.92,8.36-2.89,13.9,2.44-4.81,7.93-7.51,4.47-13.87h10.43c-1.3,1.81-2.35,3.18-3.31,4.62-4.14,6.28-8.48,12.46-12.29,18.94-1.91,3.26-1.63,6.71,2.41,9.23Z"/>
  <path class="cls-4" d="m432.12,38.2c-2.89-.07-5.13-1.59-5.33-5.27-.21-3.8,1.67-5.97,5.44-6.29,3.31-.28,6.38,2.54,6.09,5.78-.3,3.25-1.87,5.67-6.19,5.78Z"/>
  <path class="cls-5" d="m413.62,26.5c3.45.5,5.65,2.21,5.83,5.75.18,3.49-2.75,6.11-6.42,5.9-3.8-.21-5.08-2.56-5-6.02.09-3.7,2.34-5.18,5.59-5.63Z"/>
  <path class="cls-2" d="m394.34,38.13c-3.19-.35-5.39-1.92-5.45-5.61-.06-3.25,2.9-6.31,6.02-5.82,3.2.5,5.76,2.32,5.5,5.93-.24,3.33-2.18,5.48-6.07,5.5Z"/>
  <path class="cls-5" d="m85.06,1.74c-10.11,11.19-20.23,22.38-31.23,34.55h11.49c-.07-.37-2.27-2.42-1.69-3.94.49-1.29,2.29-3.98,3.7-5.02,1.95-1.44,4.5-.84,7.99-.07-.04,1.05.51,3.53-.11,5.36-.55,1.65-2.25,2.68-2.63,3.35h13.48V2.22c-.34-.16-.67-.32-1.01-.47Zm-9.64,20.62l-4.76-.26,4.95-6.11-.19,6.36Z"/>
</svg>